Coordinates
version=1
nRows=14
nColumns=46
inDegrees=yes

Units are S.I. units (second, meters, Newtons, ...)
Angles are in degrees.

endheader
time	pelvis_tilt	pelvis_list	pelvis_rotation	pelvis_tx	pelvis_ty	pelvis_tz	bb_angle	bb_tx	bb_ty	bb_tz	hip_flexion_r	hip_adduction_r	hip_rotation_r	knee_angle_r	knee_angle_r_beta	ankle_angle_r	subtalar_angle_r	mtp_angle_r	crank_angle_r	hip_flexion_l	hip_adduction_l	hip_rotation_l	knee_angle_l	knee_angle_l_beta	ankle_angle_l	subtalar_angle_l	mtp_angle_l	crank_angle_l	lumbar_extension	lumbar_bending	lumbar_rotation	arm_flex_r	arm_add_r	arm_rot_r	elbow_flex_r	pro_sup_r	wrist_flex_r	wrist_dev_r	arm_flex_l	arm_add_l	arm_rot_l	elbow_flex_l	pro_sup_l	wrist_flex_l	wrist_dev_l
      5.00000000	     -9.07518298	      4.55600216	      1.49239938	      0.17244136	      1.05782366	     -0.30420429	      0.00000000	      0.50000000	      0.00000000	      0.25000000	     56.61586387	     -8.51100431	      5.95704853	     85.39500849	      1.49042406	    -22.05617148	    -13.50337452	      0.00000000	      0.00000000	     69.43917393	     -3.67491608	     -1.79494450	     74.52814224	      1.30076147	      6.02008155	     -5.33653519	      0.00000000	      0.00000000	    -69.91653817	     -8.33239473	     -1.64522045	     89.05991578	    -30.45483897	     37.56592270	     60.49993482	     36.26938666	      0.00000000	      0.00000000	     89.53025697	    -10.94196601	     30.01300087	     64.78550744	     38.03991714	      0.00000000	      0.00000000
      5.00500000	     -8.93774527	      4.32228108	      1.41099085	      0.17237099	      1.05710648	     -0.30440417	      0.00000000	      0.50000000	      0.00000000	      0.25000000	     57.76138070	     -8.10183677	      6.22663735	     87.73697715	      1.53129913	    -21.86575386	    -13.72539174	      0.00000000	      0.00000000	     68.14001165	     -3.80134092	     -1.82522570	     72.30531162	      1.26196575	      4.41887891	     -5.21400702	      0.00000000	      0.00000000	    -69.93202535	     -8.21608542	     -1.40661328	     89.06489442	    -30.46531792	     37.66117717	     60.52241788	     36.28210797	      0.00000000	      0.00000000	     89.51185808	    -10.95065641	     30.04651384	     64.67818781	     37.97153964	      0.00000000	      0.00000000
      5.01000000	     -8.78371562	      4.01874763	      1.26604325	      0.17231386	      1.05637145	     -0.30461666	      0.00000000	      0.50000000	      0.00000000	      0.25000000	     58.92027873	     -7.65933965	      6.37749109	     90.02766688	      1.57127921	    -21.63753455	    -13.81467754	      0.00000000	      0.00000000	     66.83314196	     -4.02683944	     -1.77275833	     70.22181975	      1.22560196	      2.99985413	     -4.92898857	      0.00000000	      0.00000000	    -69.86578025	     -8.07594997	     -1.01701417	     89.09430930	    -30.39100445	     37.71607018	     60.56169838	     36.31024004	      0.00000000	      0.00000000	     89.48919122	    -11.02191699	     30.02047398	     64.58265198	     37.93344239	      0.00000000	      0.00000000
      5.01500000	     -8.70505411	      3.79232002	      1.18476616	      0.17221955	      1.05575296	     -0.30443740	      0.00000000	      0.50000000	      0.00000000	      0.25000000	     60.17741134	     -7.27914041	      6.53929725	     92.32849893	      1.61143630	    -21.25024413	    -13.96839674	      0.00000000	      0.00000000	     65.51748716	     -4.19801285	     -1.80056224	     67.97161005	      1.18632839	      1.28131915	     -4.60632492	      0.00000000	      0.00000000	    -69.77238669	     -7.98541559	     -0.78789764	     89.12126413	    -30.33247126	     37.78164420	     60.59722365	     36.33546530	      0.00000000	      0.00000000	     89.47039652	    -11.07400622	     30.01887130	     64.41112060	     37.88140375	      0.00000000	      0.00000000
      5.02000000	     -8.76501658	      3.84299088	      1.30186235	      0.17168772	      1.05481462	     -0.30539729	      0.00000000	      0.50000000	      0.00000000	      0.25000000	     61.76160265	     -7.42013268	      6.89039389	     94.69217161	      1.65269017	    -20.76245266	    -13.62835575	      0.00000000	      0.00000000	     64.27567049	     -3.95415627	     -2.14397187	     65.62980538	      1.14545619	     -0.67425849	     -5.37196392	      0.00000000	      0.00000000	    -69.58941043	     -7.76500208	     -0.94456387	     89.11314820	    -30.27567394	     38.01584482	     60.61476732	     36.36426886	      0.00000000	      0.00000000	     89.48023090	    -11.06005764	     30.09341107	     63.81087336	     37.70446853	      0.00000000	      0.00000000
      5.02500000	     -8.69032389	      3.49844006	      1.04718261	      0.17148114	      1.05436341	     -0.30552966	      0.00000000	      0.50000000	      0.00000000	      0.25000000	     63.07538511	     -6.88867644	      7.01212846	     96.79934226	      1.68946724	    -20.45274221	    -13.27205372	      0.00000000	      0.00000000	     62.85944270	     -4.27053641	     -2.06958708	     63.41111813	      1.10673279	     -2.20472392	     -5.16427399	      0.00000000	      0.00000000	    -69.52772392	     -7.65674914	     -0.53663127	     89.13776231	    -30.14252779	     37.89173450	     60.84877516	     36.34270809	      0.00000000	      0.00000000	     89.45690134	    -11.08408223	     29.88699765	     63.58619056	     37.52151597	      0.00000000	      0.00000000
      5.03000000	     -8.49151007	      3.37598227	      0.74022851	      0.17164209	      1.05437321	     -0.30577060	      0.00000000	      0.50000000	      0.00000000	      0.25000000	     64.25192730	     -6.53397114	      7.27949553	     98.86953987	      1.72559900	    -19.58298642	    -13.49168909	      0.00000000	      0.00000000	     61.11976300	     -4.31980013	     -1.90725031	     61.09340074	      1.06628099	     -3.63747207	     -5.07279135	      0.00000000	      0.00000000	    -69.57132837	     -7.66012298	     -0.32695981	     89.18550250	    -29.96354674	     37.97365671	     60.76565112	     36.47182214	      0.00000000	      0.00000000	     89.44606227	    -11.05996277	     29.85083621	     62.89423983	     37.41333896	      0.00000000	      0.00000000
      5.03500000	     -8.53753908	      2.84571216	      0.49446419	      0.17145300	      1.05384785	     -0.30609820	      0.00000000	      0.50000000	      0.00000000	      0.25000000	     65.68819740	     -5.91183590	      7.17531319	    100.86224516	      1.76037827	    -19.10753465	    -13.28479393	      0.00000000	      0.00000000	     59.78049993	     -4.74580379	     -1.62632682	     58.90587422	      1.02810145	     -4.99989225	     -4.52596148	      0.00000000	      0.00000000	    -69.35679779	     -7.43525034	      0.21168732	     89.22479944	    -29.78360628	     38.09007396	     60.71073058	     36.46799659	      0.00000000	      0.00000000	     89.42032446	    -11.16870212	     29.82189361	     62.63925185	     37.33853115	      0.00000000	      0.00000000
      5.04000000	     -8.54431398	      2.45092421	      0.23507764	      0.17142142	      1.05358961	     -0.30648273	      0.00000000	      0.50000000	      0.00000000	      0.25000000	     67.07227851	     -5.40418382	      7.20600477	    102.80126133	      1.79422049	    -18.12060586	    -13.41356146	      0.00000000	      0.00000000	     58.27077477	     -5.09774709	     -1.50883847	     56.62666635	      0.98832177	     -6.35919631	     -4.10903316	      0.00000000	      0.00000000	    -69.18554010	     -7.24438005	      0.64435252	     89.27745805	    -29.56984953	     38.17740188	     60.72455133	     36.46521746	      0.00000000	      0.00000000	     89.39802340	    -11.25210840	     29.82684149	     62.24369577	     37.24274629	      0.00000000	      0.00000000
      5.04500000	     -8.47513121	      2.13689181	     -0.09714368	      0.17145897	      1.05376836	     -0.30679990	      0.00000000	      0.50000000	      0.00000000	      0.25000000	     68.41458543	     -4.93870314	      7.28196810	    104.61927719	      1.82595085	    -17.18849315	    -13.04817983	      0.00000000	      0.00000000	     56.54362163	     -5.43253933	     -1.52330062	     54.23097518	      0.94650907	     -7.70158288	     -3.95596395	      0.00000000	      0.00000000	    -69.14508348	     -7.11410857	      1.01063312	     89.31701459	    -29.30822107	     38.32183327	     60.64703971	     36.40807754	      0.00000000	      0.00000000	     89.37418107	    -11.29087079	     29.89755175	     61.42307431	     37.04096600	      0.00000000	      0.00000000
      5.05000000	     -8.55319312	      1.48020888	     -0.43179476	      0.17146993	      1.05343908	     -0.30714778	      0.00000000	      0.50000000	      0.00000000	      0.25000000	     69.84555952	     -4.22886114	      6.97858116	    106.32858407	      1.85578388	    -16.41900559	    -13.22532619	      0.00000000	      0.00000000	     55.13427901	     -6.06392742	     -1.29826834	     52.12254794	      0.90971008	     -8.78973431	     -3.39054446	      0.00000000	      0.00000000	    -68.91142374	     -6.79223755	      1.71661650	     89.36479811	    -29.08729665	     38.37563619	     60.67930194	     36.40059354	      0.00000000	      0.00000000	     89.32968090	    -11.43357305	     29.84127842	     61.24128381	     36.98986364	      0.00000000	      0.00000000
      5.05500000	     -8.43901407	      1.15176788	     -0.78807873	      0.17167264	      1.05363490	     -0.30740774	      0.00000000	      0.50000000	      0.00000000	      0.25000000	     71.20117571	     -3.78840759	      7.02136579	    108.03466318	      1.88556058	    -15.42258007	    -12.58123251	      0.00000000	      0.00000000	     53.36908747	     -6.50390650	     -1.48881220	     49.89865887	      0.87089589	    -10.10529425	     -3.08032726	      0.00000000	      0.00000000	    -68.90624289	     -6.65624151	      2.12899932	     89.39141961	    -28.78660787	     38.41287094	     60.68717407	     36.27067988	      0.00000000	      0.00000000	     89.31966276	    -11.42960679	     29.87207018	     60.32197477	     36.74813461	      0.00000000	      0.00000000
      5.06000000	     -8.50930983	      0.46326311	     -1.14626954	      0.17181235	      1.05330609	     -0.30787238	      0.00000000	      0.50000000	      0.00000000	      0.25000000	     72.71948861	     -3.15250519	      6.64956782	    109.59513528	      1.91279595	    -14.88106333	    -12.59813934	      0.00000000	      0.00000000	     51.98331180	     -7.21478556	     -1.37353698	     48.04612600	      0.83856309	    -10.89905600	     -2.56292384	      0.00000000	      0.00000000	    -68.69532832	     -6.29000288	      2.92734646	     89.43632934	    -28.51725765	     38.44314653	     60.75878000	     36.27060734	      0.00000000	      0.00000000	     89.24296339	    -11.59833093	     29.78768330	     60.21716354	     36.71914107	      0.00000000	      0.00000000
      5.06500000	     -8.51728927	     -0.16828749	     -1.47481919	      0.17180872	      1.05336113	     -0.30793961	      0.00000000	      0.50000000	      0.00000000	      0.25000000	     74.14529309	     -2.56335770	      6.22706716	    111.00926853	      1.93747724	    -14.13262038	    -12.64838456	      0.00000000	      0.00000000	     50.51355769	     -7.94846861	     -1.43928581	     46.13611303	      0.80522708	    -12.03388590	     -1.89658011	      0.00000000	      0.00000000	    -68.57803328	     -5.94688383	      3.57839098	     89.45056461	    -28.23874561	     38.47577757	     60.86382651	     36.26185577	      0.00000000	      0.00000000	     89.18412732	    -11.77694372	     29.73157626	     59.98107041	     36.66593807	      0.00000000	      0.00000000
